<svg width="60" height="60" viewBox="0 0 60 60" fill="none" xmlns="http://www.w3.org/2000/svg">
<path opacity="0.5" d="M29.9983 5C41.7833 5 47.676 5 51.337 8.66118C53.2307 10.5549 54.145 13.0456 54.5862 16.64V25H5.41016V16.64C5.85151 13.0456 6.76571 10.5549 8.65943 8.66118C12.3206 5 18.2131 5 29.9983 5Z" fill="#F8B500"/>
<path fill-rule="evenodd" clip-rule="evenodd" d="M5 35C5 27.9993 5 24.499 6.36243 21.8251C7.56083 19.4731 9.4731 17.5608 11.8251 16.3624C14.499 15 17.9993 15 25 15H35C42.0007 15 45.501 15 48.175 16.3624C50.527 17.5608 52.4392 19.4731 53.6375 21.8251C55 24.499 55 27.9993 55 35C55 42.0008 55 45.501 53.6375 48.175C52.4392 50.527 50.527 52.4393 48.175 53.6375C45.501 55 42.0007 55 35 55H25C17.9993 55 14.499 55 11.8251 53.6375C9.4731 52.4393 7.56083 50.527 6.36243 48.175C5 45.501 5 42.0008 5 35ZM31.875 27.5C31.875 26.4645 31.0355 25.625 30 25.625C28.9645 25.625 28.125 26.4645 28.125 27.5V37.9733L25.0758 34.9243C24.3436 34.192 23.1564 34.192 22.4242 34.9243C21.692 35.6565 21.692 36.8435 22.4242 37.5758L28.6742 43.8258C29.0257 44.1775 29.5028 44.375 30 44.375C30.4972 44.375 30.9743 44.1775 31.3258 43.8258L37.5758 37.5758C38.308 36.8435 38.308 35.6565 37.5758 34.9243C36.8435 34.192 35.6565 34.192 34.9242 34.9243L31.875 37.9733V27.5Z" fill="#F8B500"/>
</svg>
