<svg width="60" height="60" viewBox="0 0 60 60" fill="none" xmlns="http://www.w3.org/2000/svg">
<path opacity="0.5" d="M30 55C18.2149 55 12.3223 55 8.66117 51.3387C5 47.6777 5 41.785 5 30C5 18.2149 5 12.3223 8.66117 8.66117C12.3223 5 18.2149 5 30 5C41.785 5 47.6777 5 51.3387 8.66117C55 12.3223 55 18.2149 55 30C55 41.785 55 47.6777 51.3387 51.3387C47.6777 55 41.785 55 30 55Z" fill="#F8B500"/>
<path d="M30 44.375C31.0355 44.375 31.875 43.5355 31.875 42.5V27.5C31.875 26.4645 31.0355 25.625 30 25.625C28.9645 25.625 28.125 26.4645 28.125 27.5V42.5C28.125 43.5355 28.9645 44.375 30 44.375Z" fill="#F8B500"/>
<path d="M30 17.5C31.3807 17.5 32.5 18.6193 32.5 20C32.5 21.3807 31.3807 22.5 30 22.5C28.6193 22.5 27.5 21.3807 27.5 20C27.5 18.6193 28.6193 17.5 30 17.5Z" fill="#F8B500"/>
</svg>
