<svg width="60" height="60" viewBox="0 0 60 60" fill="none" xmlns="http://www.w3.org/2000/svg">
<path d="M19.0611 11.1223C23.753 9.2449 26.552 8.125 30 8.125C33.448 8.125 36.247 9.2449 40.939 11.1223L48.3628 14.0918C50.749 15.0463 52.682 15.8194 54.0088 16.515C54.6803 16.8671 55.3308 17.2662 55.8325 17.7473C56.348 18.2417 56.875 18.9914 56.875 20C56.875 21.0086 56.348 21.7583 55.8325 22.2527C55.3308 22.7338 54.6803 23.1329 54.0088 23.485C52.682 24.1806 50.749 24.9537 48.3628 25.9083L40.939 28.8777C36.247 30.755 33.448 31.875 30 31.875C26.552 31.875 23.753 30.755 19.0611 28.8777L11.6374 25.9083C9.25093 24.9537 7.318 24.1806 5.99118 23.485C5.31965 23.1329 4.66912 22.7338 4.16752 22.2527C3.65212 21.7583 3.125 21.0086 3.125 20C3.125 18.9914 3.65212 18.2417 4.16752 17.7473C4.66912 17.2662 5.31965 16.8671 5.99118 16.515C7.31803 15.8194 9.25093 15.0463 11.6374 14.0917L19.0611 11.1223Z" fill="#F8B500"/>
<path opacity="0.7" d="M6.2562 28.608L6.24748 28.6005C5.47655 27.9135 4.29405 27.9788 3.60395 28.748C2.91248 29.5188 2.97758 30.705 3.7484 31.3965C3.7484 31.3965 3.74763 31.3958 4.99968 30L3.7484 31.3965L3.7511 31.3988L3.7555 31.4028L3.76705 31.413L3.8013 31.443C3.8291 31.467 3.86678 31.4993 3.91433 31.5388C4.00948 31.6183 4.1442 31.7278 4.31858 31.8625C4.6673 32.132 5.1748 32.5025 5.84123 32.9348C7.17395 33.799 9.14363 34.911 11.7504 35.9535L18.7715 38.762L19.0607 38.8778C23.7527 40.755 26.5515 41.875 29.9997 41.875C33.4477 41.875 36.2468 40.755 40.9385 38.8778L41.2278 38.762L48.249 35.9535C50.8558 34.911 52.8255 33.799 54.158 32.9348C54.8245 32.5025 55.332 32.132 55.6808 31.8625C55.8553 31.7278 55.9898 31.6183 56.085 31.5388C56.1325 31.4993 56.1703 31.467 56.198 31.443L56.2323 31.413L56.2437 31.4028L56.2483 31.3988L56.2517 31.3958C57.0225 30.7043 57.0868 29.5188 56.3955 28.748C55.7053 27.9788 54.5232 27.913 53.7525 28.6L53.7483 28.6038L53.7432 28.608C53.7322 28.6178 53.7115 28.6353 53.6815 28.6603C53.6215 28.7105 53.5235 28.7903 53.3878 28.8953C53.1158 29.1055 52.6925 29.4158 52.1177 29.7885C50.968 30.534 49.2143 31.5288 46.8563 32.4718L39.835 35.2803C34.773 37.305 32.6507 38.125 29.9997 38.125C27.3487 38.125 25.2263 37.305 20.1643 35.2803L13.1431 32.4718C10.7851 31.5288 9.03128 30.534 7.88168 29.7885C7.3069 29.4158 6.8835 29.1055 6.61163 28.8953C6.47573 28.7903 6.37775 28.7105 6.31773 28.6603C6.28773 28.6353 6.26723 28.6178 6.2562 28.608Z" fill="#F8B500"/>
<path opacity="0.4" d="M6.24708 38.7477C5.47613 38.0607 4.29405 38.1265 3.60395 38.8957C2.91248 39.6665 2.97758 40.8527 3.7484 41.5442L3.7511 41.5465L3.7555 41.5505L3.76705 41.5607L3.8013 41.5905C3.8291 41.6147 3.86678 41.6467 3.91433 41.6865C4.00948 41.766 4.1442 41.8755 4.31858 42.0102C4.6673 42.2797 5.1748 42.6502 5.84123 43.0825C7.17395 43.9467 9.14363 45.0585 11.7504 46.1012L18.7715 48.9097L19.0607 49.0255C23.7527 50.9027 26.5515 52.0227 29.9997 52.0227C33.4477 52.0227 36.2468 50.9027 40.9385 49.0255L41.2278 48.9097L48.249 46.1012C50.8558 45.0585 52.8255 43.9467 54.158 43.0825C54.8245 42.6502 55.332 42.2797 55.6808 42.0102C55.8553 41.8755 55.9898 41.766 56.085 41.6865C56.1325 41.6467 56.1703 41.6147 56.198 41.5905L56.2323 41.5607L56.2437 41.5505L56.2483 41.5465L56.2517 41.5435C57.0225 40.852 57.0868 39.6665 56.3955 38.8957C55.7053 38.1265 54.5232 38.0607 53.7525 38.7477L53.7483 38.7512L53.7432 38.7557C53.7322 38.7652 53.7115 38.783 53.6815 38.808C53.6215 38.858 53.5235 38.938 53.3878 39.043C53.1158 39.2532 52.6925 39.5635 52.1177 39.9362C50.968 40.6817 49.2143 41.6762 46.8563 42.6195L39.835 45.428C34.773 47.4527 32.6507 48.2727 29.9997 48.2727C27.3487 48.2727 25.2263 47.4527 20.1643 45.428L13.1431 42.6195C10.7851 41.6762 9.03128 40.6817 7.88168 39.9362C7.3069 39.5635 6.8835 39.2532 6.61163 39.043C6.47573 38.938 6.37775 38.858 6.31773 38.808C6.28773 38.783 6.26723 38.7652 6.2562 38.7557L6.24708 38.7477Z" fill="#F8B500"/>
</svg>
